<svg width="153" height="42" viewBox="0 0 153 42" fill="none" xmlns="http://www.w3.org/2000/svg">
<path d="M12.1449 8.36364C12.0384 7.46402 11.6063 6.76562 10.8487 6.26847C10.0911 5.77131 9.16193 5.52273 8.06108 5.52273C7.25616 5.52273 6.55185 5.65293 5.94815 5.91335C5.35038 6.17377 4.88281 6.53184 4.54545 6.98757C4.21402 7.4433 4.0483 7.96117 4.0483 8.54119C4.0483 9.02651 4.16371 9.44377 4.39453 9.79297C4.63127 10.1362 4.93312 10.4233 5.30007 10.6541C5.66702 10.879 6.05173 11.0655 6.45419 11.2134C6.85665 11.3555 7.22656 11.4709 7.56392 11.5597L9.41051 12.0568C9.884 12.1811 10.4107 12.3527 10.9908 12.5717C11.5767 12.7907 12.136 13.0896 12.6687 13.4684C13.2073 13.8413 13.6512 14.3207 14.0004 14.9066C14.3496 15.4925 14.5241 16.2116 14.5241 17.0639C14.5241 18.0464 14.2667 18.9342 13.7518 19.7273C13.2428 20.5204 12.497 21.1507 11.5146 21.6183C10.538 22.0858 9.35133 22.3196 7.95455 22.3196C6.65246 22.3196 5.52498 22.1095 4.57209 21.6893C3.62512 21.2691 2.87938 20.6831 2.33487 19.9315C1.79628 19.1798 1.49148 18.3068 1.42045 17.3125H3.69318C3.75237 17.9991 3.98319 18.5672 4.38565 19.017C4.79403 19.4609 5.30895 19.7924 5.9304 20.0114C6.55777 20.2244 7.23248 20.331 7.95455 20.331C8.79498 20.331 9.5496 20.1948 10.2184 19.9226C10.8872 19.6444 11.4169 19.2597 11.8075 18.7685C12.1982 18.2713 12.3935 17.6913 12.3935 17.0284C12.3935 16.4247 12.2248 15.9335 11.8874 15.5547C11.5501 15.1759 11.1062 14.8681 10.5558 14.6314C10.0053 14.3946 9.41051 14.1875 8.77131 14.0099L6.53409 13.3707C5.11364 12.9624 3.98911 12.3794 3.16051 11.6218C2.33191 10.8642 1.91761 9.87287 1.91761 8.64773C1.91761 7.62973 2.19283 6.74195 2.74325 5.98438C3.2996 5.22088 4.04534 4.62902 4.98047 4.20881C5.92152 3.78267 6.97206 3.5696 8.1321 3.5696C9.30398 3.5696 10.3456 3.77971 11.2571 4.19993C12.1686 4.61423 12.8906 5.18241 13.4233 5.90447C13.9619 6.62654 14.246 7.44626 14.2756 8.36364H12.1449ZM19.9552 13.7969V22H17.86V3.81818H19.9552V10.4943H20.1327C20.4523 9.79001 20.9317 9.23071 21.5709 8.81641C22.2161 8.39619 23.0742 8.18608 24.1455 8.18608C25.0747 8.18608 25.8885 8.37251 26.5869 8.74538C27.2853 9.11233 27.8269 9.67756 28.2116 10.4411C28.6022 11.1986 28.7975 12.1634 28.7975 13.3352V22H26.7023V13.4773C26.7023 12.3942 26.4212 11.5567 25.8589 10.9648C25.3026 10.3671 24.5302 10.0682 23.5418 10.0682C22.8553 10.0682 22.2397 10.2132 21.6952 10.5032C21.1566 10.7932 20.7305 11.2164 20.4168 11.7727C20.109 12.3291 19.9552 13.0038 19.9552 13.7969ZM38.1703 22.2841C36.9392 22.2841 35.8591 21.9911 34.9299 21.4052C34.0066 20.8192 33.2845 19.9995 32.7637 18.946C32.2488 17.8925 31.9913 16.6615 31.9913 15.2528C31.9913 13.8324 32.2488 12.5924 32.7637 11.533C33.2845 10.4736 34.0066 9.65092 34.9299 9.06499C35.8591 8.47905 36.9392 8.18608 38.1703 8.18608C39.4013 8.18608 40.4785 8.47905 41.4018 9.06499C42.331 9.65092 43.0531 10.4736 43.568 11.533C44.0888 12.5924 44.3493 13.8324 44.3493 15.2528C44.3493 16.6615 44.0888 17.8925 43.568 18.946C43.0531 19.9995 42.331 20.8192 41.4018 21.4052C40.4785 21.9911 39.4013 22.2841 38.1703 22.2841ZM38.1703 20.402C39.1054 20.402 39.8748 20.1623 40.4785 19.6829C41.0822 19.2035 41.5291 18.5732 41.8191 17.7919C42.1091 17.0107 42.2541 16.1643 42.2541 15.2528C42.2541 14.3414 42.1091 13.4921 41.8191 12.7049C41.5291 11.9177 41.0822 11.2815 40.4785 10.7962C39.8748 10.3108 39.1054 10.0682 38.1703 10.0682C37.2351 10.0682 36.4657 10.3108 35.862 10.7962C35.2583 11.2815 34.8115 11.9177 34.5215 12.7049C34.2315 13.4921 34.0865 14.3414 34.0865 15.2528C34.0865 16.1643 34.2315 17.0107 34.5215 17.7919C34.8115 18.5732 35.2583 19.2035 35.862 19.6829C36.4657 20.1623 37.2351 20.402 38.1703 20.402ZM47.5475 27.1136V8.36364H49.5716V10.5298H49.8202C49.9741 10.2931 50.1872 9.99124 50.4594 9.62429C50.7376 9.25142 51.1341 8.91998 51.6491 8.62997C52.1699 8.33404 52.8742 8.18608 53.762 8.18608C54.9102 8.18608 55.9223 8.47313 56.7982 9.04723C57.6742 9.62133 58.3577 10.4351 58.849 11.4886C59.3402 12.5421 59.5858 13.785 59.5858 15.2173C59.5858 16.6615 59.3402 17.9132 58.849 18.9727C58.3577 20.0262 57.6771 20.8429 56.8071 21.4229C55.9371 21.997 54.9339 22.2841 53.7975 22.2841C52.9215 22.2841 52.2202 22.1391 51.6934 21.8491C51.1667 21.5531 50.7613 21.2187 50.4772 20.8459C50.1931 20.4671 49.9741 20.1534 49.8202 19.9048H49.6427V27.1136H47.5475ZM49.6072 15.1818C49.6072 16.2116 49.7581 17.1201 50.0599 17.9073C50.3618 18.6886 50.8027 19.3011 51.3827 19.745C51.9627 20.183 52.673 20.402 53.5134 20.402C54.3894 20.402 55.1203 20.1712 55.7062 19.7095C56.2981 19.242 56.742 18.6146 57.0379 17.8274C57.3398 17.0343 57.4907 16.1525 57.4907 15.1818C57.4907 14.223 57.3427 13.3589 57.0468 12.5895C56.7568 11.8142 56.3158 11.2016 55.724 10.7518C55.1381 10.296 54.4012 10.0682 53.5134 10.0682C52.6611 10.0682 51.945 10.2842 51.365 10.7163C50.7849 11.1424 50.347 11.7402 50.051 12.5096C49.7551 13.2731 49.6072 14.1638 49.6072 15.1818ZM84.5148 3.81818V22H82.3841L72.4765 7.72443H72.2989V22H70.0972V3.81818H72.2279L82.1711 18.1293H82.3486V3.81818H84.5148ZM94.1761 22.2841C92.9451 22.2841 91.8649 21.9911 90.9357 21.4052C90.0124 20.8192 89.2904 19.9995 88.7695 18.946C88.2546 17.8925 87.9972 16.6615 87.9972 15.2528C87.9972 13.8324 88.2546 12.5924 88.7695 11.533C89.2904 10.4736 90.0124 9.65092 90.9357 9.06499C91.8649 8.47905 92.9451 8.18608 94.1761 8.18608C95.4072 8.18608 96.4844 8.47905 97.4077 9.06499C98.3369 9.65092 99.0589 10.4736 99.5739 11.533C100.095 12.5924 100.355 13.8324 100.355 15.2528C100.355 16.6615 100.095 17.8925 99.5739 18.946C99.0589 19.9995 98.3369 20.8192 97.4077 21.4052C96.4844 21.9911 95.4072 22.2841 94.1761 22.2841ZM94.1761 20.402C95.1113 20.402 95.8807 20.1623 96.4844 19.6829C97.0881 19.2035 97.5349 18.5732 97.8249 17.7919C98.1149 17.0107 98.2599 16.1643 98.2599 15.2528C98.2599 14.3414 98.1149 13.4921 97.8249 12.7049C97.5349 11.9177 97.0881 11.2815 96.4844 10.7962C95.8807 10.3108 95.1113 10.0682 94.1761 10.0682C93.241 10.0682 92.4716 10.3108 91.8679 10.7962C91.2642 11.2815 90.8174 11.9177 90.5273 12.7049C90.2373 13.4921 90.0923 14.3414 90.0923 15.2528C90.0923 16.1643 90.2373 17.0107 90.5273 17.7919C90.8174 18.5732 91.2642 19.2035 91.8679 19.6829C92.4716 20.1623 93.241 20.402 94.1761 20.402ZM106.179 22L102.024 8.36364H104.226L107.173 18.804H107.315L110.227 8.36364H112.464L115.341 18.7685H115.483L118.43 8.36364H120.632L116.477 22H114.418L111.435 11.5241H111.222L108.239 22H106.179Z" fill="#1F1F1F"/>
<mask id="path-2-inside-1_44_7" fill="white">
<path d="M0 28H147V30H0V28Z"/>
</mask>
<path d="M147 28H0V32H147V28Z" fill="#1F1F1F" mask="url(#path-2-inside-1_44_7)"/>
<path d="M137.728 18C137.544 18 137.354 18.073 137.213 18.2148C136.929 18.4984 136.929 18.9625 137.213 19.2461L146.919 28.9527L137.354 38.5176C137.071 38.8012 137.071 39.2652 137.354 39.5488C137.638 39.8324 138.102 39.8324 138.386 39.5488L148.471 29.4684C148.754 29.1848 148.754 28.7207 148.471 28.4371L138.248 18.2148C138.102 18.0687 137.917 18 137.728 18Z" fill="black"/>
</svg>
